<?xml version="1.0" encoding="utf-8"?>
<!-- Generator: Adobe Illustrator 25.0.0, SVG Export Plug-In . SVG Version: 6.00 Build 0)  -->
<svg version="1.1" id="图层_1" xmlns="http://www.w3.org/2000/svg" xmlns:xlink="http://www.w3.org/1999/xlink" x="0px" y="0px"
	 viewBox="0 0 293.11 102.13" style="enable-background:new 0 0 293.11 102.13;" xml:space="preserve">
<style type="text/css">
	.st0{display:none;opacity:0.5;}
	.st1{display:inline;}
	.st2{fill:none;stroke:#3F5465;stroke-width:2;stroke-miterlimit:10;}
	.st3{fill:none;stroke:#3F5465;stroke-width:2;stroke-miterlimit:10;stroke-dasharray:5.0456,4.0365;}
	.st4{fill:none;stroke:#3F5465;stroke-width:2;stroke-miterlimit:10;stroke-dasharray:5.2731,4.2185;}
	.st5{opacity:0.7;fill:#E7F4F0;}
	.st6{fill:none;stroke:#3CB58B;stroke-width:2;stroke-miterlimit:10;}
	.st7{fill:#3CB58B;stroke:#3CB58B;stroke-width:0.5;stroke-miterlimit:10;}
	.st8{font-family:'OTGulimB-KSCpc-EUC-H';}
	.st9{font-size:14.4px;}
	.st10{fill:#595757;stroke:#3E3A39;stroke-width:2;stroke-miterlimit:10;}
	.st11{fill:#DCDDDD;stroke:#3E3A39;stroke-width:2;stroke-miterlimit:10;}
	.st12{fill:#3E3A39;stroke:#3E3A39;stroke-width:2;stroke-miterlimit:10;}
	.st13{fill:#3E3A39;}
	.st14{fill:#FFFFFF;}
	.st15{font-size:8px;}
	.st16{fill:#3CB58B;stroke:#3CB58B;stroke-width:2;stroke-miterlimit:10;}
	.st17{fill:#3CB58B;}
	.st18{opacity:0.5;fill:#3CB58B;}
</style>
<g id="AUC">
	<g class="st0">
		<g class="st1">
			<line class="st2" x1="-3.99" y1="48.9" x2="-1.49" y2="48.9"/>
			<line class="st3" x1="2.54" y1="48.9" x2="91.35" y2="48.9"/>
			<line class="st2" x1="93.36" y1="48.9" x2="95.86" y2="48.9"/>
		</g>
	</g>
	<g class="st0">
		<g class="st1">
			<line class="st2" x1="42.18" y1="8.34" x2="42.18" y2="10.84"/>
			<line class="st4" x1="42.18" y1="15.06" x2="42.18" y2="79.39"/>
			<line class="st2" x1="42.18" y1="81.5" x2="42.18" y2="84"/>
		</g>
	</g>
	<path class="st5" d="M18.45,12.42c0-3.4,2.89-6.11,6.29-5.85C51.21,8.55,72.08,20.25,86,31.08c5.69,4.42,25.07,20.11,29.19,41.89
		c0.68,3.61-2.09,6.95-5.76,6.95l-85.11,0c-3.24,0-5.86-2.62-5.86-5.86V12.42z"/>
</g>
<path class="st6" d="M242.64,81.51h-93.45c-6.6,0-12-5.4-12-12V17.28c0-6.6,5.4-12,12-12h93.45c6.6,0,12,5.4,12,12v52.23
	C254.64,76.11,249.24,81.51,242.64,81.51z"/>
<text transform="matrix(1 0 0 1 53.5371 96.0613)" class="st7 st8 st9">Rec.</text>
<text transform="matrix(4.489659e-11 -1 1 4.489659e-11 13.0859 58.6834)" class="st7 st8 st9">Prec.</text>
<path class="st6" d="M106.72,81.21H29.45c-6.6,0-12-5.4-12-12V17.28c0-6.6,5.4-12,12-12h77.27c6.6,0,12,5.4,12,12v51.93
	C118.72,75.81,113.32,81.21,106.72,81.21z"/>
<path class="st6" d="M24.12,6.55c34.19,6.65,41.26,10.22,59.09,22.42c14.71,10.07,32.09,34.29,32.09,48.62"/>
<path class="st10" d="M273.7,81.51h-83.74c-6.6,0-12-5.4-12-12V17.17c0-6.6,5.4-12,12-12h83.74c6.6,0,12,5.4,12,12v52.34
	C285.7,76.11,280.3,81.51,273.7,81.51z"/>
<g id="music">
	<path class="st11" d="M242.64,74.53h-21.11c-6.6,0-12-5.4-12-12V32.4c0-6.6,5.4-12,12-12h21.11c6.6,0,12,5.4,12,12v30.13
		C254.64,69.13,249.24,74.53,242.64,74.53z"/>
	<path class="st11" d="M230.9,63.62c-0.94,0.49-0.94,3.75,0,4.23c0.83,0.42,2.94-1.19,3.06-2.12
		C234.07,64.81,231.72,63.19,230.9,63.62z"/>
	<path class="st12" d="M240.48,64.28c-0.76,0.34-0.77,2.58,0,2.91c0.67,0.29,2.39-0.82,2.48-1.46S241.14,63.98,240.48,64.28z"/>
	<path class="st12" d="M222.43,64.28c0.76,0.34,0.77,2.58,0,2.91c-0.67,0.29-2.39-0.82-2.48-1.46
		C219.86,65.1,221.77,63.98,222.43,64.28z"/>
	<circle class="st11" cx="232.46" cy="39.06" r="9.98"/>
	<circle class="st11" cx="232.5" cy="38.87" r="6.09"/>
	<path class="st13" d="M238.71,27.75l-6.01-3.95c-0.25-0.17-0.33-0.51-0.16-0.77l0,0c0.17-0.25,0.51-0.33,0.77-0.16l6.01,3.95
		c0.25,0.17,0.33,0.51,0.16,0.77v0C239.31,27.85,238.97,27.92,238.71,27.75z"/>
	<path class="st13" d="M242.18,27.94h-3.13c-0.14,0-0.26-0.11-0.26-0.26v-0.77c0-0.14,0.11-0.26,0.26-0.26h3.13
		c0.14,0,0.26,0.11,0.26,0.26v0.77C242.43,27.82,242.32,27.94,242.18,27.94z"/>
	<circle class="st10" cx="233.15" cy="23.7" r="0.38"/>
	<path class="st13" d="M231.49,53.21h-12.07c-0.46,0-0.83-0.37-0.83-0.83l0,0c0-0.46,0.37-0.83,0.83-0.83h12.07
		c0.46,0,0.83,0.37,0.83,0.83l0,0C232.32,52.84,231.94,53.21,231.49,53.21z"/>
	<path class="st13" d="M244.26,53.21h-9.66c-0.46,0-0.83-0.37-0.83-0.83v0c0-0.46,0.37-0.83,0.83-0.83h9.66
		c0.46,0,0.83,0.37,0.83,0.83v0C245.09,52.84,244.72,53.21,244.26,53.21z"/>
	<path class="st13" d="M225.58,56.18h-6.16c-0.46,0-0.83-0.37-0.83-0.83v0c0-0.46,0.37-0.83,0.83-0.83h6.16
		c0.46,0,0.83,0.37,0.83,0.83v0C226.41,55.81,226.04,56.18,225.58,56.18z"/>
	<path class="st13" d="M244.26,56.18h-15.73c-0.46,0-0.83-0.37-0.83-0.83l0,0c0-0.46,0.37-0.83,0.83-0.83h15.73
		c0.46,0,0.83,0.37,0.83,0.83l0,0C245.09,55.81,244.72,56.18,244.26,56.18z"/>
	<path class="st13" d="M230.48,59.02h-11.06c-0.46,0-0.83-0.37-0.83-0.83v0c0-0.46,0.37-0.83,0.83-0.83h11.06
		c0.46,0,0.83,0.37,0.83,0.83v0C231.31,58.65,230.93,59.02,230.48,59.02z"/>
</g>
<text transform="matrix(1 0 0 1 190.8608 14.8229)" class="st14 st8 st15">Recommended for you</text>
<path class="st13" d="M199.17,33.34h-13.28c-0.46,0-0.83-0.37-0.83-0.83v-2.6c0-0.46,0.37-0.83,0.83-0.83h13.28
	c0.46,0,0.83,0.37,0.83,0.83v2.6C200,32.97,199.63,33.34,199.17,33.34z"/>
<path class="st13" d="M204.68,40.77H191.4c-0.46,0-0.83-0.37-0.83-0.83v-2.6c0-0.46,0.37-0.83,0.83-0.83h13.28
	c0.46,0,0.83,0.37,0.83,0.83v2.6C205.51,40.39,205.14,40.77,204.68,40.77z"/>
<path class="st13" d="M204.68,48.19h-18.79c-0.46,0-0.83-0.37-0.83-0.83v-2.6c0-0.46,0.37-0.83,0.83-0.83h18.79
	c0.46,0,0.83,0.37,0.83,0.83v2.6C205.51,47.82,205.14,48.19,204.68,48.19z"/>
<path class="st13" d="M190.66,56.65h-4.76c-0.46,0-0.83-0.37-0.83-0.83v-2.6c0-0.46,0.37-0.83,0.83-0.83h4.76
	c0.46,0,0.83,0.37,0.83,0.83v2.6C191.48,56.28,191.11,56.65,190.66,56.65z"/>
<path class="st13" d="M204.68,56.65h-10.81c-0.46,0-0.83-0.37-0.83-0.83v-2.6c0-0.46,0.37-0.83,0.83-0.83h10.81
	c0.46,0,0.83,0.37,0.83,0.83v2.6C205.51,56.28,205.14,56.65,204.68,56.65z"/>
<path class="st13" d="M202.06,65.11h-16.17c-0.46,0-0.83-0.37-0.83-0.83v-2.6c0-0.46,0.37-0.83,0.83-0.83h16.17
	c0.46,0,0.83,0.37,0.83,0.83v2.6C202.89,64.73,202.52,65.11,202.06,65.11z"/>
<path class="st13" d="M275.46,59.82h-13.28c-0.46,0-0.83,0.37-0.83,0.83v2.6c0,0.46,0.37,0.83,0.83,0.83h13.28
	c0.46,0,0.83-0.37,0.83-0.83v-2.6C276.29,60.19,275.91,59.82,275.46,59.82z"/>
<path class="st13" d="M280.97,52.39h-13.28c-0.46,0-0.83,0.37-0.83,0.83v2.6c0,0.46,0.37,0.83,0.83,0.83h13.28
	c0.46,0,0.83-0.37,0.83-0.83v-2.6C281.8,52.77,281.43,52.39,280.97,52.39z"/>
<path class="st13" d="M280.97,44.97h-18.79c-0.46,0-0.83,0.37-0.83,0.83v2.6c0,0.46,0.37,0.83,0.83,0.83h18.79
	c0.46,0,0.83-0.37,0.83-0.83v-2.6C281.8,45.34,281.43,44.97,280.97,44.97z"/>
<path class="st13" d="M266.94,36.51h-4.76c-0.46,0-0.83,0.37-0.83,0.83v2.6c0,0.46,0.37,0.83,0.83,0.83h4.76
	c0.46,0,0.83-0.37,0.83-0.83v-2.6C267.77,36.88,267.4,36.51,266.94,36.51z"/>
<path class="st13" d="M280.97,36.51h-10.81c-0.46,0-0.83,0.37-0.83,0.83v2.6c0,0.46,0.37,0.83,0.83,0.83h10.81
	c0.46,0,0.83-0.37,0.83-0.83v-2.6C281.8,36.88,281.43,36.51,280.97,36.51z"/>
<path class="st13" d="M278.35,28.05l-16.17,0c-0.46,0-0.83,0.37-0.83,0.83v2.6c0,0.46,0.37,0.83,0.83,0.83h16.17
	c0.46,0,0.83-0.37,0.83-0.83v-2.6C279.18,28.43,278.81,28.05,278.35,28.05z"/>
<text transform="matrix(1 0 0 1 152.6982 96.0609)" class="st7 st8 st9">Recommendation</text>
<circle class="st16" cx="148.58" cy="18.17" r="4.12"/>
<path class="st16" d="M154.3,29.26c0,4.22-3.98,3.23-5.85,3.23s-5.59,0.98-5.59-3.23s3.72-8.47,5.59-8.47S154.3,25.04,154.3,29.26z"
	/>
<text transform="matrix(1 0 0 1 156.8727 20.7236)" class="st17 st8 st15">User</text>
<text transform="matrix(1 0 0 1 157.4969 30.085)" class="st17 st8 st15">XXX</text>
<path class="st18" d="M158.81,43.5h-14.2c-1.22,0-2.21-1-2.21-2.21v0c0-1.22,1-2.21,2.21-2.21h14.2c1.22,0,2.21,1,2.21,2.21v0
	C161.02,42.5,160.03,43.5,158.81,43.5z"/>
<path class="st18" d="M170.97,43.5h-6.04c-1.22,0-2.21-1-2.21-2.21v0c0-1.22,1-2.21,2.21-2.21h6.04c1.22,0,2.21,1,2.21,2.21v0
	C173.19,42.5,172.19,43.5,170.97,43.5z"/>
<path class="st18" d="M170.97,50.1h-26.37c-1.22,0-2.21-1-2.21-2.21v0c0-1.22,1-2.21,2.21-2.21h26.37c1.22,0,2.21,1,2.21,2.21v0
	C173.19,49.1,172.19,50.1,170.97,50.1z"/>
<path class="st18" d="M150.65,56.68h-6.04c-1.22,0-2.21-1-2.21-2.21v0c0-1.22,1-2.21,2.21-2.21h6.04c1.22,0,2.21,1,2.21,2.21v0
	C152.86,55.68,151.87,56.68,150.65,56.68z"/>
<path class="st18" d="M158.04,65.71h-13.44c-1.22,0-2.21-1-2.21-2.21v-2.45c0-1.22,1-2.21,2.21-2.21h13.44c1.22,0,2.21,1,2.21,2.21
	v2.45C160.26,64.72,159.26,65.71,158.04,65.71z"/>
<path class="st18" d="M170.11,65.71h-6.07c-1.22,0-2.21-1-2.21-2.21v-2.45c0-1.22,1-2.21,2.21-2.21h6.07c1.22,0,2.21,1,2.21,2.21
	v2.45C172.32,64.72,171.32,65.71,170.11,65.71z"/>
</svg>
