<?xml version="1.0" encoding="utf-8"?>
<!-- Generator: Adobe Illustrator 25.0.0, SVG Export Plug-In . SVG Version: 6.00 Build 0)  -->
<svg version="1.1" id="图层_1" xmlns="http://www.w3.org/2000/svg" xmlns:xlink="http://www.w3.org/1999/xlink" x="0px" y="0px"
	 viewBox="0 0 296.68 100.77" style="enable-background:new 0 0 296.68 100.77;" xml:space="preserve">
<style type="text/css">
	.st0{display:none;}
	.st1{display:inline;}
	.st2{fill:none;stroke:#F3AFB1;stroke-width:2;stroke-miterlimit:10;}
	.st3{display:none;opacity:0.5;}
	.st4{fill:none;stroke:#3F5465;stroke-width:2;stroke-miterlimit:10;}
	.st5{fill:none;stroke:#3F5465;stroke-width:2;stroke-miterlimit:10;stroke-dasharray:5.0456,4.0365;}
	.st6{fill:none;stroke:#3F5465;stroke-width:2;stroke-miterlimit:10;stroke-dasharray:5.2731,4.2185;}
	.st7{opacity:0.7;fill:#FADEE7;}
	.st8{display:inline;fill:#F3AFB1;stroke:#F3AFB1;stroke-width:0.5;stroke-miterlimit:10;}
	.st9{font-family:'OTGulimB-KSCpc-EUC-H';}
	.st10{font-size:14.4px;}
	.st11{fill:none;stroke:#F3AFB1;stroke-width:2;stroke-miterlimit:10;stroke-dasharray:5.2731,4.2185;}
	.st12{fill:none;stroke:#F3AFB1;stroke-width:2;stroke-miterlimit:10;stroke-dasharray:5.287,4.2296;}
	.st13{display:none;fill:none;stroke:#F3AFB1;stroke-width:2;stroke-miterlimit:10;}
	.st14{fill:#F3AFB1;stroke:#F3AFB1;stroke-width:0.5;stroke-miterlimit:10;}
	.st15{fill:#FFFFFF;stroke:#F3AFB1;stroke-width:2;stroke-miterlimit:10;}
	.st16{fill:#595757;stroke:#3E3A39;stroke-width:2;stroke-miterlimit:10;}
	.st17{fill:#595757;stroke:#C9CACA;stroke-width:2;stroke-miterlimit:10;}
	.st18{fill:#DCDDDD;}
	.st19{fill:none;stroke:#595757;stroke-width:2;stroke-miterlimit:10;}
	.st20{fill:#F3AFB1;stroke:#F3AFB1;stroke-width:2;stroke-miterlimit:10;}
	.st21{fill:#FFFFFF;stroke:#595757;stroke-width:0.75;stroke-miterlimit:10;}
	.st22{opacity:0.5;fill:#F3AFB1;}
</style>
<g id="AUC_2_" class="st0">
	<g id="AUC" class="st1">
		<polyline class="st2" points="115.06,4.85 15.21,4.85 15.21,80.51 		"/>
		<path class="st2" d="M115.06,4.85c-48.57,0-99.86,38.86-99.86,75.66h99.86V4.85z"/>
		<g class="st3">
			<g class="st1">
				<line class="st4" x1="-6.04" y1="48.47" x2="-3.54" y2="48.47"/>
				<line class="st5" x1="0.5" y1="48.47" x2="89.3" y2="48.47"/>
				<line class="st4" x1="91.32" y1="48.47" x2="93.82" y2="48.47"/>
			</g>
		</g>
		<g class="st3">
			<g class="st1">
				<line class="st4" x1="40.13" y1="7.92" x2="40.13" y2="10.42"/>
				<line class="st6" x1="40.13" y1="14.64" x2="40.13" y2="78.97"/>
				<line class="st4" x1="40.13" y1="81.08" x2="40.13" y2="83.58"/>
			</g>
		</g>
		<path class="st7" d="M113.9,5.86C84.45,6.3,61.37,18.98,46.36,30.66c-6.27,4.88-29.23,23.47-29.95,48.85h97.49V5.86z"/>
	</g>
	<text transform="matrix(1 0 0 1 51.4899 95.6386)" class="st8 st9 st10">FPR</text>
	<text transform="matrix(4.489659e-11 -1 1 4.489659e-11 11.0387 53.2607)" class="st8 st9 st10">TPR</text>
</g>
<g id="TPAUC" class="st0">
	<g id="AUC_1_" class="st1">
		<polyline class="st2" points="289.71,4.85 189.85,4.85 189.85,80.51 		"/>
		<path class="st2" d="M289.71,4.85c-48.57,0-99.86,38.86-99.86,75.66h99.86V4.85z"/>
		<g class="st3">
			<g class="st1">
				<line class="st4" x1="168.61" y1="48.47" x2="171.11" y2="48.47"/>
				<line class="st5" x1="175.14" y1="48.47" x2="263.95" y2="48.47"/>
				<line class="st4" x1="265.97" y1="48.47" x2="268.47" y2="48.47"/>
			</g>
		</g>
		<g class="st3">
			<g class="st1">
				<line class="st4" x1="214.78" y1="7.92" x2="214.78" y2="10.42"/>
				<line class="st6" x1="214.78" y1="14.64" x2="214.78" y2="78.97"/>
				<line class="st4" x1="214.78" y1="81.08" x2="214.78" y2="83.58"/>
			</g>
		</g>
		<path class="st7" d="M240.85,17.87c-3.83,2.38-10.4,4.84-21.06,13.49c-11.19,9.08-14.69,14.59-17.24,17.74h38.3V17.87z"/>
	</g>
	<text transform="matrix(1 0 0 1 230.1373 95.6386)" class="st8 st9 st10">FPR</text>
	<text transform="matrix(4.489659e-11 -1 1 4.489659e-11 185.6862 53.2607)" class="st8 st9 st10">TPR</text>
	<g class="st1">
		<g>
			<line class="st2" x1="239.81" y1="5.86" x2="239.81" y2="8.36"/>
			<line class="st11" x1="239.81" y1="12.58" x2="239.81" y2="76.91"/>
			<line class="st2" x1="239.81" y1="79.02" x2="239.81" y2="81.52"/>
		</g>
	</g>
	<g class="st1">
		<g>
			<line class="st2" x1="202.55" y1="48.38" x2="205.05" y2="48.38"/>
			<line class="st12" x1="209.28" y1="48.38" x2="283.3" y2="48.38"/>
			<line class="st2" x1="285.41" y1="48.38" x2="287.91" y2="48.38"/>
		</g>
	</g>
</g>
<g id="TPAUC_1_">
	<g id="AUC_3_">
		<polyline class="st13" points="119.54,4.85 19.68,4.85 19.68,80.51 		"/>
		<path class="st13" d="M119.54,4.85c-48.57,0-99.86,38.86-99.86,75.66h99.86V4.85z"/>
		<g class="st3">
			<g class="st1">
				<line class="st4" x1="-1.56" y1="48.47" x2="0.94" y2="48.47"/>
				<line class="st5" x1="4.97" y1="48.47" x2="93.78" y2="48.47"/>
				<line class="st4" x1="95.79" y1="48.47" x2="98.29" y2="48.47"/>
			</g>
		</g>
		<g class="st3">
			<g class="st1">
				<line class="st4" x1="44.61" y1="7.92" x2="44.61" y2="10.42"/>
				<line class="st6" x1="44.61" y1="14.64" x2="44.61" y2="78.97"/>
				<line class="st4" x1="44.61" y1="81.08" x2="44.61" y2="83.58"/>
			</g>
		</g>
		<path class="st7" d="M70.68,17.87c-9.02,4.04-9.4,2.84-20.06,11.49c-11.19,9.08-15.69,16.59-18.24,19.74h38.3V17.87z"/>
	</g>
	<text transform="matrix(1 0 0 1 59.9661 97.6386)" class="st14 st9 st10">FPR</text>
	<text transform="matrix(4.489659e-11 -1 1 4.489659e-11 15.5149 53.2607)" class="st14 st9 st10">TPR</text>
	<g>
		<g>
			<line class="st2" x1="69.64" y1="5.86" x2="69.64" y2="8.36"/>
			<line class="st11" x1="69.64" y1="12.58" x2="69.64" y2="76.91"/>
			<line class="st2" x1="69.64" y1="79.02" x2="69.64" y2="81.52"/>
		</g>
	</g>
	<g>
		<g>
			<line class="st2" x1="32.38" y1="48.38" x2="34.88" y2="48.38"/>
			<line class="st12" x1="39.11" y1="48.38" x2="113.13" y2="48.38"/>
			<line class="st2" x1="115.24" y1="48.38" x2="117.74" y2="48.38"/>
		</g>
	</g>
</g>
<path class="st15" d="M191.74,81.52h-43.4c-6.6,0-12-5.4-12-12V16.85c0-6.6,5.4-12,12-12h43.4c6.6,0,12,5.4,12,12v52.66
	C203.74,76.12,198.34,81.52,191.74,81.52z"/>
<path class="st2" d="M107.54,81.52H32.68c-6.6,0-12-5.4-12-12V16.85c0-6.6,5.4-12,12-12h74.86c6.6,0,12,5.4,12,12v52.66
	C119.54,76.12,114.14,81.52,107.54,81.52z"/>
<path class="st2" d="M22.86,76.38c0-22.94,16.2-39.02,27.53-47.64C63.12,19.06,88.34,8,114.81,7.34"/>
<path class="st16" d="M267.83,81.52h-80.17c-6.6,0-12-5.4-12-12V16.85c0-6.6,5.4-12,12-12h80.17c6.6,0,12,5.4,12,12v52.66
	C279.83,76.12,274.43,81.52,267.83,81.52z"/>
<g id="body">
	<path class="st17" d="M203.84,16.39c3.51-3.51,16.75-3.86,19.88,0c1.95,2.41,2.58,10.68,0,12.39c-1.29,0.85-5.1-1.09-6.19,0
		c-2.29,2.29,2.04,10.44,0,12.96c-2.15,2.66-11.28,2.44-13.68,0C199.39,37.22,199.36,20.87,203.84,16.39z"/>
	<path class="st17" d="M255.31,16.39c-3.51-3.51-16.75-3.86-19.88,0c-1.95,2.41-2.58,10.68,0,12.39c1.29,0.85,5.1-1.09,6.19,0
		c2.29,2.29-2.04,10.44,0,12.96c2.15,2.66,11.28,2.44,13.68,0C259.76,37.22,259.79,20.87,255.31,16.39z"/>
	<path class="st17" d="M235.72,32.57c2.57,2.2-2.6,9.35-5.98,9.35c-3.38,0-8.48-7.8-5.57-9.54c2.53-1.51,5.67,1.47,5.67,1.47
		S233.22,30.43,235.72,32.57z"/>
	<path class="st17" d="M203.78,47.83c8-0.99,18.09-1.24,18.76,0c2.44,4.49-14.52,11.17-18.76,8.3
		C202.05,54.97,199.55,48.36,203.78,47.83z"/>
	<path class="st17" d="M255.58,46.08c-3.66-1.27-2.37,3.13-6.71,5.99c-4.33,2.86-11.46-0.7-8.99,4.37c1.11,2.28,8.91,3.97,13.24,1.1
		C257.46,54.69,257.85,46.87,255.58,46.08z"/>
	<path class="st17" d="M232.34,52.51h-4.45c-1.35,0-2.45-1.1-2.45-2.45v0c0-1.35,1.1-2.45,2.45-2.45h4.45c1.35,0,2.45,1.1,2.45,2.45
		v0C234.79,51.41,233.68,52.51,232.34,52.51z"/>
	<path class="st17" d="M232.19,60.57h-4.45c-1.35,0-2.45-1.1-2.45-2.45v0c0-1.35,1.1-2.45,2.45-2.45h4.45c1.35,0,2.45,1.1,2.45,2.45
		v0C234.64,59.47,233.53,60.57,232.19,60.57z"/>
	<path class="st17" d="M232.34,68.64h-4.45c-1.35,0-2.45-1.1-2.45-2.45v0c0-1.35,1.1-2.45,2.45-2.45h4.45c1.35,0,2.45,1.1,2.45,2.45
		v0C234.79,67.54,233.68,68.64,232.34,68.64z"/>
</g>
<path class="st18" d="M192.94,12.23h-9.96c-0.56,0-1.02-0.46-1.02-1.02v0c0-0.56,0.46-1.02,1.02-1.02h9.96
	c0.56,0,1.02,0.46,1.02,1.02v0C193.96,11.77,193.5,12.23,192.94,12.23z"/>
<path class="st18" d="M190.13,15.83h-7.15c-0.56,0-1.02-0.46-1.02-1.02v0c0-0.56,0.46-1.02,1.02-1.02h7.15
	c0.56,0,1.02,0.46,1.02,1.02v0C191.15,15.37,190.69,15.83,190.13,15.83z"/>
<path class="st18" d="M193.38,72.86h-9.96c-0.56,0-1.02,0.46-1.02,1.02l0,0c0,0.56,0.46,1.02,1.02,1.02h9.96
	c0.56,0,1.02-0.46,1.02-1.02l0,0C194.4,73.32,193.94,72.86,193.38,72.86z"/>
<path class="st18" d="M190.57,69.27h-7.15c-0.56,0-1.02,0.46-1.02,1.02l0,0c0,0.56,0.46,1.02,1.02,1.02h7.15
	c0.56,0,1.02-0.46,1.02-1.02l0,0C191.6,69.73,191.14,69.27,190.57,69.27z"/>
<path class="st17" d="M216.26,72.86L216.26,72.86c-1.82,0-3.31-1.49-3.31-3.31v-5.67c0-1.82,1.49-3.31,3.31-3.31l0,0
	c1.82,0,3.31,1.49,3.31,3.31v5.67C219.57,71.37,218.09,72.86,216.26,72.86z"/>
<path class="st17" d="M242.78,62.13L242.78,62.13c1.87,0,3.41,1.53,3.41,3.41v5.96c0,1.87-1.53,3.41-3.41,3.41h0
	c-1.87,0-3.41-1.53-3.41-3.41v-5.96C239.38,63.66,240.91,62.13,242.78,62.13z"/>
<path class="st17" d="M232.09,77.35h-4.45c-1.35,0-2.45-1.1-2.45-2.45v0c0-1.35,1.1-2.45,2.45-2.45h4.45c1.35,0,2.45,1.1,2.45,2.45
	v0C234.54,76.25,233.44,77.35,232.09,77.35z"/>
<g id="medical">
	<line class="st19" x1="152.87" y1="21.93" x2="161.92" y2="29.81"/>
	<path class="st20" d="M155.75,26.7l1.06,0.92c2.2,1.91,2.43,5.28,0.52,7.47l-0.59,0.68c-1.91,2.2-5.28,2.43-7.47,0.52l-1.06-0.92
		c-2.2-1.91-2.43-5.28-0.52-7.47l0.59-0.68C150.18,25.02,153.55,24.79,155.75,26.7z"/>
	
		<rect x="149.07" y="26.31" transform="matrix(0.7541 0.6568 -0.6568 0.7541 57.0111 -94.5839)" class="st20" width="11.49" height="5.07"/>
	<path class="st19" d="M166.9,14.96L166.9,14.96c-2.49-2.17-6.3-1.9-8.47,0.58l-11.13,12.78c-2.17,2.49-1.9,6.3,0.58,8.47v0
		c2.49,2.17,6.3,1.9,8.47-0.58l11.13-12.78C169.66,20.93,169.39,17.12,166.9,14.96z"/>
	<circle class="st21" cx="149.76" cy="31.36" r="1.41"/>
</g>
<path class="st22" d="M158.45,48.07h-14.2c-1.22,0-2.21-1-2.21-2.21v0c0-1.22,1-2.21,2.21-2.21h14.2c1.22,0,2.21,1,2.21,2.21v0
	C160.66,47.07,159.66,48.07,158.45,48.07z"/>
<path class="st22" d="M170.61,48.07h-6.04c-1.22,0-2.21-1-2.21-2.21v0c0-1.22,1-2.21,2.21-2.21h6.04c1.22,0,2.21,1,2.21,2.21v0
	C172.82,47.07,171.83,48.07,170.61,48.07z"/>
<path class="st22" d="M170.61,54.67h-26.37c-1.22,0-2.21-1-2.21-2.21v0c0-1.22,1-2.21,2.21-2.21h26.37c1.22,0,2.21,1,2.21,2.21v0
	C172.82,53.67,171.83,54.67,170.61,54.67z"/>
<path class="st22" d="M150.29,61.25h-6.04c-1.22,0-2.21-1-2.21-2.21v0c0-1.22,1-2.21,2.21-2.21h6.04c1.22,0,2.21,1,2.21,2.21v0
	C152.5,60.26,151.51,61.25,150.29,61.25z"/>
<path class="st22" d="M157.68,70.29h-13.44c-1.22,0-2.21-1-2.21-2.21v-2.45c0-1.22,1-2.21,2.21-2.21h13.44c1.22,0,2.21,1,2.21,2.21
	v2.45C159.89,69.29,158.9,70.29,157.68,70.29z"/>
<path class="st22" d="M169.75,70.29h-6.07c-1.22,0-2.21-1-2.21-2.21v-2.45c0-1.22,1-2.21,2.21-2.21h6.07c1.22,0,2.21,1,2.21,2.21
	v2.45C171.96,69.29,170.96,70.29,169.75,70.29z"/>
<text transform="matrix(1 0 0 1 183.8997 97.5127)" class="st14 st9 st10">Medical</text>
</svg>
