<?xml version="1.0" encoding="utf-8"?>
<!-- Generator: Adobe Illustrator 25.0.0, SVG Export Plug-In . SVG Version: 6.00 Build 0)  -->
<svg version="1.1" id="图层_1" xmlns="http://www.w3.org/2000/svg" xmlns:xlink="http://www.w3.org/1999/xlink" x="0px" y="0px"
	 viewBox="0 0 350 151.26" style="enable-background:new 0 0 350 151.26;" xml:space="preserve">
<style type="text/css">
	.st0{fill:#EEF8FD;}
	.st1{opacity:0.1;fill:#98D0C7;}
	.st2{fill:none;stroke:#EC9499;stroke-width:2;stroke-miterlimit:10;}
	.st3{fill:none;stroke:#98D0C7;stroke-width:2;stroke-miterlimit:10;}
	.st4{opacity:0.4;fill:none;stroke:#727171;stroke-width:2;stroke-miterlimit:10;}
	.st5{opacity:0.4;fill:#98D0C7;}
	.st6{opacity:0.4;fill:#EC9499;}
</style>
<path class="st0" d="M319.53,142.07H37.47c-9.39,0-17.01-7.61-17.01-17.01V27.9c0-9.39,7.61-17.01,17.01-17.01h282.07
	c9.39,0,17.01,7.61,17.01,17.01v97.17C336.54,134.46,328.93,142.07,319.53,142.07z"/>
<g>
	<g>
		<rect x="62.52" y="31.65" class="st1" width="111.55" height="20.28"/>
		<g>
			<line class="st2" x1="69.03" y1="41.69" x2="82.05" y2="41.69"/>
			<line class="st2" x1="75.54" y1="35.09" x2="75.54" y2="48.11"/>
		</g>
		<line class="st3" x1="90.08" y1="41.6" x2="102.45" y2="41.6"/>
		<g>
			<line class="st2" x1="110.59" y1="41.79" x2="123.61" y2="41.79"/>
			<line class="st2" x1="117.1" y1="35.18" x2="117.1" y2="48.2"/>
		</g>
		<g>
			<line class="st2" x1="131.85" y1="41.79" x2="144.88" y2="41.79"/>
			<line class="st2" x1="138.36" y1="35.18" x2="138.36" y2="48.2"/>
		</g>
		<line class="st3" x1="155.18" y1="41.79" x2="167.55" y2="41.79"/>
	</g>
	<g>
		<rect x="183.77" y="31.46" class="st1" width="111.55" height="20.28"/>
		<line class="st3" x1="190.24" y1="41.41" x2="202.61" y2="41.41"/>
		<line class="st3" x1="210.86" y1="41.41" x2="223.23" y2="41.41"/>
		<g>
			<line class="st2" x1="232.02" y1="41.5" x2="245.04" y2="41.5"/>
			<line class="st2" x1="238.53" y1="34.9" x2="238.53" y2="47.92"/>
		</g>
		<g>
			<line class="st2" x1="252.85" y1="41.5" x2="265.87" y2="41.5"/>
			<line class="st2" x1="259.36" y1="34.9" x2="259.36" y2="47.92"/>
		</g>
		<g>
			<line class="st2" x1="275.42" y1="41.5" x2="288.44" y2="41.5"/>
			<line class="st2" x1="281.93" y1="34.9" x2="281.93" y2="47.92"/>
		</g>
	</g>
	<line class="st4" x1="64.46" y1="116.86" x2="297.65" y2="116.86"/>
	<path class="st4" d="M64.46,68.68v48.18c0,0,26.17-30.92,29.91-34.72c17.25-17.58,33.64-19.64,47.96-3.47
		c13.39,15.11,21.84,31.64,36.68,26.26c13.36-4.85,26.81-44.24,49.26-42.37c13.61,1.13,25.29,19.26,37.11,30.65
		c10.29,9.92,31.25,22.35,31.25,22.35"/>
	<path class="st5" d="M66.31,115.99c0,0,20.45-24.14,27.3-31.77c6.54-7.29,18.65-16.46,28.15-15.76c3.61,0.27,8.93,1.41,13.51,4.88
		c5.86,4.45,10.36,10.33,13.13,14c4.96,6.56,25.66,28.65,25.66,28.65H66.31z"/>
	<path class="st6" d="M174.06,115.99l-14.56-15.81c0,0,6.83,6.65,13.21,6.65c7.83,0,11.39-3.8,14.11-6.78
		c5.28-5.81,10.15-13.21,12.86-16.87c3.16-4.27,8.14-10.31,13.02-14.11c4.96-3.85,9.5-6,14.27-5.64c3.61,0.27,6.99,0.58,13.34,5.44
		c9.17,7.03,14.77,14.85,17.91,18.21c6.4,6.84,8.16,8.74,14.21,13.29c10.38,7.8,22.34,15.12,23.13,15.6c0.01,0.01,0,0.03-0.01,0.03
		H174.07C174.07,115.99,174.06,115.99,174.06,115.99z"/>
</g>
</svg>
